<?xml version="1.0" encoding="UTF-8" standalone="no"?>
<svg
   version="1.1"
   x="0px"
   y="0px"
   viewBox="0 0 91.400002 91.400002"
   xml:space="preserve"
   id="svg5"
   sodipodi:docname="bob-profile.svg"
   inkscape:version="1.4 (e7c3feb100, 2024-10-09)"
   width="91.400002"
   height="91.400002"
   xmlns:inkscape="http://www.inkscape.org/namespaces/inkscape"
   xmlns:sodipodi="http://sodipodi.sourceforge.net/DTD/sodipodi-0.dtd"
   xmlns="http://www.w3.org/2000/svg"
   xmlns:svg="http://www.w3.org/2000/svg"><defs
     id="defs5" /><sodipodi:namedview
     id="namedview5"
     pagecolor="#ffffff"
     bordercolor="#000000"
     borderopacity="0.25"
     inkscape:showpageshadow="2"
     inkscape:pageopacity="0.0"
     inkscape:pagecheckerboard="0"
     inkscape:deskcolor="#d1d1d1"
     inkscape:zoom="2.3871925"
     inkscape:cx="85.456033"
     inkscape:cy="-29.323148"
     inkscape:window-width="1920"
     inkscape:window-height="1008"
     inkscape:window-x="1920"
     inkscape:window-y="0"
     inkscape:window-maximized="1"
     inkscape:current-layer="g4" /><g
     id="g4"
     transform="translate(-4.3,-4.3)"><g
       id="g3"><path
         d="m 45.3,52.7 c 0.2,-0.3 0.3,-0.6 0.1,-1 -0.2,-0.4 -0.6,-1.5 -10.6,-2.2 -0.4,0 -0.7,0.3 -0.8,0.6 -0.3,3.2 1.1,4.4 2.3,4.9 0.6,0.2 1.2,0.3 1.9,0.3 3,0.1 6.4,-1.7 7.1,-2.6 z M 35.5,51 c 3.3,0.3 7,0.8 8.3,1.2 -1.3,0.9 -4.9,2.4 -6.9,1.5 -0.4,-0.1 -1.4,-0.5 -1.4,-2.7 z"
         id="path1" /><path
         d="m 44.1,38.1 c 0.2,-0.3 0.5,-0.4 0.9,-0.4 1.5,0 3.6,1.7 4.3,2.3 0.1,0.1 0.3,0.2 0.5,0.2 0.2,0 0.4,-0.1 0.5,-0.2 0.3,-0.3 0.3,-0.7 0,-1 -0.3,-0.3 -3,-2.8 -5.3,-2.7 -0.8,0 -1.4,0.3 -1.9,0.9 -0.3,0.3 -0.2,0.7 0,1 0.2,0.3 0.7,0.2 1,-0.1 z"
         id="path2" /><path
         d="m 50,4.3 v 0 0 C 24.8,4.3 4.3,24.8 4.3,50 v 0 0 0 0 C 4.3,75.2 24.8,95.7 50,95.7 75.2,95.7 95.7,75.2 95.7,50 95.7,24.8 75.2,4.3 50,4.3 Z m 0,1.4 v 0 0 c 24.4,0 44.3,19.9 44.3,44.3 0,10.8 -3.9,20.6 -10.3,28.3 v 0 C 81.3,69.8 76.1,67.6 72.4,66 70.8,65.3 69.5,64.8 68.6,63.9 v 0 c 0.9,-2.8 0.9,-5.9 1,-8.8 0,-2.8 0.1,-5.4 0.8,-7.4 0.8,-0.8 3,-2.6 4.8,-2.3 2.2,0.4 4,-1.1 4.9,-4 1.4,-4.7 0.2,-13.6 -4.4,-15.6 -2.8,-1.3 -4.1,-3.3 -5.3,-5.2 -1.3,-2 -2.6,-4.1 -5.4,-5.1 -1.7,-0.6 -3.3,-1.5 -4.9,-2.3 -3.4,-1.8 -6.9,-3.7 -10.4,-2.6 -1,0.3 -2,0.5 -3.1,0.8 -4.2,1 -8.9,2.1 -12,7 0,0.1 -0.1,0.1 -0.1,0.2 -4.3,1.1 -5.6,3.3 -6,4.8 -0.7,2.9 1.3,6.4 4.7,8.4 -0.1,0.3 -0.3,0.6 -0.4,0.9 -2,4.2 -5,10.5 -5,17 V 51 c 0,2.5 0,5 -0.4,7.6 -1,0.3 -2,0.6 -3.1,0.8 -4.4,0.9 -9.8,2.1 -13.9,10.4 v 0 C 7.4,63.8 5.7,57.1 5.7,50 5.7,25.6 25.6,5.7 50,5.7 Z m -4.6,88.4 v 0 C 44.7,94 44,93.9 43.2,93.8 c 0,-0.4 0.1,-2.7 0,-6.1 1.3,-1.1 2.8,-2.6 4.2,-4.3 -1,3.1 -2,7.1 -2,10.4 0,0.1 0,0.2 0,0.3 z M 39,88.9 c 1.1,-1.1 2.4,-2.7 3.6,-4.6 0,0 0.1,-0.1 0.1,-0.2 2.5,-3.9 4.9,-8.9 5.4,-13.9 0.4,-4.5 2.9,-8.9 5.5,-13.6 1.4,-2.4 2.7,-4.9 3.8,-7.4 -0.3,1.8 -0.8,3.7 -1.2,5.3 -0.7,2.8 -1.4,5.1 -0.9,6.9 0.4,1.5 -0.2,5 -0.8,8.5 0,0 -0.1,0 -0.1,0.1 0,0.1 -3.8,5.9 -6.7,10.3 -2.9,4.6 -6.5,7.4 -8.7,8.6 z M 32,63.7 c -0.1,-1.8 -0.1,-3.5 0,-4.5 0,-0.4 -0.3,-0.7 -0.7,-0.8 -0.4,0 -0.7,0.3 -0.8,0.7 -0.1,1.1 0,2.8 0,4.7 0,0.8 0.1,1.6 0.1,2.4 L 30.4,66 c 0,0 -2.8,2.6 -5,4.8 -1,1 -2.8,2.1 -4,2.7 7.9,-8.7 7.9,-15.7 7.8,-22.4 v -1.3 c 0,-5.2 2.1,-10.4 3.9,-14.4 -0.2,1.3 -0.3,2.5 -0.4,3.3 -0.1,0.6 -0.3,1.4 -0.6,2.3 -0.6,1.8 -1.3,4.1 -0.7,6.1 0.2,0.6 0.4,1.7 0.6,3.1 0.7,4.1 1.7,10 4.4,11.8 0,2.2 -0.4,14.1 -9.6,22.1 0.6,-1.8 2.4,-5.5 3.3,-7.4 0.5,-1 0.9,-1.9 1.2,-2.4 1,-2.3 0.8,-6.7 0.7,-10.6 z M 33.4,49.9 C 33.2,48.5 33,47.3 32.8,46.6 32.3,45 32.9,43 33.5,41.3 c 0.3,-0.9 0.6,-1.8 0.7,-2.6 0.1,-0.6 0.1,-1.4 0.3,-2.3 0.1,0 0.2,-0.1 0.2,-0.1 0.5,-0.5 1.1,-0.5 1.8,-0.2 1.2,0.5 2.3,2 2.3,2.8 0,0.7 -1.4,2.4 -2.3,3.6 -1.6,2 -2.4,3 -2.1,3.9 0.4,1.6 1.7,1.8 2.5,1.9 0.5,0.1 1,0 1.6,0 0.6,-0.1 1.4,-0.1 1.7,0.1 0.3,0.2 0.7,0.3 1.1,0.3 0.5,0 1.1,-0.2 1.5,-0.6 0.7,-0.7 0.9,-1.6 0.5,-2.3 -0.2,-0.3 -0.6,-0.5 -1,-0.3 -0.3,0.2 -0.5,0.6 -0.3,1 0.1,0.2 -0.1,0.4 -0.2,0.6 0,0 -0.5,0.4 -0.9,0.1 -0.8,-0.5 -1.8,-0.4 -2.6,-0.3 -0.4,0 -0.9,0.1 -1.2,0 -1,-0.2 -1.2,-0.4 -1.4,-0.9 0,-0.4 1.1,-1.8 1.8,-2.7 1.6,-2 2.6,-3.4 2.6,-4.4 0,-1.4 -1.5,-3.4 -3.1,-4.1 -0.8,-0.4 -1.6,-0.4 -2.3,-0.1 0.3,-1.3 0.7,-2.7 1.3,-3.8 0,-0.1 0,-0.1 0.1,-0.2 1.6,-1.3 4.5,-2.7 8.2,-0.6 2.4,1.4 4.3,2.3 5.9,3 1.9,0.9 3.3,1.5 4.6,2.6 -0.3,3.5 0.8,6.2 1.7,8.4 0.3,0.7 0.6,1.3 0.8,2 -1.1,3.4 -3,6.7 -4.8,9.9 -2.6,2.6 -7.7,5.3 -14.1,5.3 -3.1,-0.2 -4.3,-7.5 -5,-11.4 z M 59.8,34.3 C 59.2,33 58.3,31.5 57.3,30.1 55.3,27.2 48.1,17.9 41.1,17.9 c -1.7,0 -3.2,0.1 -4.5,0.3 2.8,-3.6 6.7,-4.5 10.4,-5.4 1.1,-0.3 2.1,-0.5 3.2,-0.8 3,-0.9 6.1,0.7 9.4,2.5 1.6,0.9 3.3,1.8 5.1,2.4 2.4,0.9 3.5,2.6 4.7,4.5 1.3,2 2.8,4.3 5.9,5.8 3.5,1.6 5,9.3 3.6,13.9 -0.5,1.5 -1.4,3.3 -3.3,3 -2.1,-0.3 -4.3,1.1 -5.4,2.1 -0.9,-1.4 -2.9,-3 -5.2,-4.6 v 0 c -0.7,-0.5 -1.3,-0.9 -2,-1.4 -2.2,-1.5 -4.4,-3 -5.6,-4.2 -2,-2.1 -3.9,-2.9 -6.5,-4.1 -1.6,-0.7 -3.4,-1.6 -5.8,-2.9 -1.6,-0.9 -3.1,-1.3 -4.4,-1.3 -3.3,0 -5.6,2.1 -6.5,3 -2.8,-1.7 -4.6,-4.6 -4.1,-6.9 0.7,-2.8 4.7,-4.4 11.1,-4.4 5,0 11.1,6 15.1,11.6 1,1.4 1.8,2.8 2.4,4 0.2,0.4 0.6,0.5 0.9,0.3 0.2,-0.2 0.3,-0.7 0.2,-1 z M 63,53.5 c 0.1,1.4 -0.8,4 -1.6,6.3 -0.9,2.6 -1.8,4.9 -1.5,6.3 0.5,2.5 -0.7,5.1 -1.7,7.3 -0.8,1.7 -1.5,3.2 -1.5,4.7 0,3 -0.6,3.4 -0.6,3.4 -0.2,0 -1,-0.9 -1.3,-2.4 -0.2,-1.3 0.4,-4.4 1,-7.5 0.8,-4.2 1.6,-8.6 1,-10.6 -0.4,-1.4 0.2,-3.6 0.9,-6.1 0.5,-1.9 1.1,-4.1 1.3,-6.3 0.2,-1.7 -0.5,-3.4 -1.2,-5.2 -0.8,-1.9 -1.6,-4 -1.7,-6.6 v 0 c 1.3,1.3 3.5,2.8 5.8,4.4 0.5,0.4 1.1,0.8 1.7,1.2 -0.2,1.6 -1,6.7 -0.6,11.1 z m -25.1,9 c 0.1,0 0.3,0.1 0.4,0.1 5.1,0 9.3,-1.6 12.4,-3.5 -1.9,3.6 -3.6,7.3 -3.9,11 -0.4,4.1 -2.1,8.3 -4.1,11.7 -0.9,-5.9 -2.7,-10.4 -5.4,-13.5 0.4,-2.6 0.6,-4.7 0.6,-5.8 z M 54.6,82.2 C 55,82.7 55.5,83 56,83 h 0.1 c 1.3,-0.1 1.9,-1.7 1.9,-4.9 0,-1.1 0.7,-2.5 1.4,-4 1.1,-2.4 2.5,-5.2 1.8,-8.2 -0.2,-1 0.7,-3.4 1.4,-5.5 0.9,-2.6 1.9,-5.2 1.7,-6.9 -0.3,-3.6 0.2,-8 0.5,-10 2.1,1.5 3.9,3 4.1,4 -0.8,2.2 -0.9,5 -0.9,7.8 0,3.9 -0.1,8 -2.2,11.2 -1.2,1.8 -1.8,4.2 -2.4,6.3 -0.5,2 -1,3.9 -1.9,4.5 -0.9,0.6 -1.5,1.6 -2.4,3 -1.4,2.1 -3,4.8 -6.3,6.6 -0.8,0.5 -1.3,0.6 -1.5,0.7 0.4,-1.1 1.6,-3.2 3.3,-5.4 z M 11.2,71.3 c 3.8,-8.5 8.9,-9.6 13.4,-10.5 0.9,-0.2 1.7,-0.4 2.5,-0.6 -0.9,3.9 -2.9,8.1 -7.3,12.9 -0.4,0.4 -1.3,1.4 -0.6,2.1 0.2,0.2 0.4,0.2 0.7,0.2 1.8,0 5.5,-2.6 6.5,-3.6 1.6,-1.5 3.3,-3.2 4.3,-4.1 0,2.4 -0.1,4.7 -0.6,5.9 -0.3,0.6 -0.7,1.4 -1.1,2.4 -3.8,7.9 -4.1,9.3 -3.3,9.9 0.2,0.1 0.4,0.2 0.5,0.2 0.5,0 1,-0.4 1.2,-0.6 5.7,-4.7 8.3,-10.7 9.5,-15.5 2.3,3.1 3.9,7.7 4.6,13.6 -1.5,2.3 -3.1,4.1 -4.2,5.1 -0.6,0.5 -1.1,1.1 -0.9,1.7 0.1,0.3 0.4,0.6 0.8,0.6 0,0 0.1,0 0.2,0 0.8,0 2.5,-0.7 4.6,-2.2 0.1,2.4 0,4.1 0,4.7 C 35,92.2 28.5,89.2 23.1,85 v 0 c -0.1,-2.6 -0.4,-5.2 -0.9,-6.7 -0.1,-0.4 -0.5,-0.6 -0.9,-0.4 -0.4,0.1 -0.6,0.5 -0.4,0.9 0.4,1.1 0.6,3 0.7,5 C 17.3,80.3 13.8,76.1 11.2,71.3 Z M 66.8,91 c 0.2,-2.7 0.8,-6.8 2.6,-9.2 0.2,-0.3 0.2,-0.8 -0.2,-1 -0.3,-0.2 -0.8,-0.2 -1,0.2 -2.2,3 -2.7,7.8 -2.9,10.7 -4.8,1.8 -9.9,2.7 -15.3,2.7 -1.1,0 -2.2,-0.1 -3.3,-0.1 v 0 c 0.1,-0.1 0.1,-0.2 0.1,-0.3 0,-5.7 3.3,-14 3.7,-14.9 1.2,-1.9 2.5,-3.9 3.5,-5.4 -0.5,2.5 -0.8,4.6 -0.6,5.8 0.1,0.5 0.2,1 0.4,1.5 -3.1,4 -4.2,6.6 -3.4,7.5 0.2,0.3 0.6,0.4 1,0.4 0.7,0 1.6,-0.4 2.4,-0.9 3.6,-2 5.4,-4.9 6.8,-7.1 0.7,-1.1 1.3,-2.1 1.9,-2.5 1.3,-0.8 1.8,-2.9 2.4,-5.3 0.5,-2 1.1,-4.3 2.2,-5.9 0.4,-0.6 0.7,-1.1 0.9,-1.7 1,0.8 2.3,1.4 3.8,2 3.8,1.6 8.7,3.6 11.1,12.2 v 0 C 78.5,84.5 73,88.4 66.8,91 Z"
         id="path3" /></g></g></svg>
