<?xml version="1.0" encoding="UTF-8" standalone="no"?>
<svg
   version="1.1"
   x="0px"
   y="0px"
   viewBox="0 0 100 125"
   enable-background="new 0 0 100 100"
   xml:space="preserve"
   id="svg3"
   sodipodi:docname="eye.svg"
   inkscape:version="1.4 (e7c3feb100, 2024-10-09)"
   xmlns:inkscape="http://www.inkscape.org/namespaces/inkscape"
   xmlns:sodipodi="http://sodipodi.sourceforge.net/DTD/sodipodi-0.dtd"
   xmlns="http://www.w3.org/2000/svg"
   xmlns:svg="http://www.w3.org/2000/svg"><defs
     id="defs3" /><sodipodi:namedview
     id="namedview3"
     pagecolor="#ffffff"
     bordercolor="#000000"
     borderopacity="0.25"
     inkscape:showpageshadow="2"
     inkscape:pageopacity="0.0"
     inkscape:pagecheckerboard="0"
     inkscape:deskcolor="#d1d1d1"
     inkscape:zoom="6.4"
     inkscape:cx="49.921875"
     inkscape:cy="62.5"
     inkscape:window-width="1920"
     inkscape:window-height="1008"
     inkscape:window-x="1920"
     inkscape:window-y="0"
     inkscape:window-maximized="1"
     inkscape:current-layer="svg3" /><g
     id="g2"><path
       d="M90.688,83.267L51.299,15.046c-0.268-0.464-0.763-0.75-1.299-0.75c-0.536,0-1.031,0.286-1.299,0.75L9.205,83.455   c-0.268,0.464-0.268,1.036,0,1.5c0.268,0.464,0.763,0.75,1.299,0.75h78.993c0.006-0.001,0.014,0,0.02,0c0.829,0,1.5-0.672,1.5-1.5   C91.017,83.85,90.894,83.523,90.688,83.267z M39.727,51.037c-2.136,2.419-3.444,5.585-3.444,9.059c0,3.406,1.255,6.521,3.318,8.922   c-5.001-1.78-9.51-4.833-13.081-8.967C30.121,55.882,34.675,52.811,39.727,51.037z M39.282,60.096   c0-5.909,4.809-10.717,10.719-10.717s10.718,4.808,10.718,10.717c0,5.911-4.808,10.721-10.718,10.721S39.282,66.007,39.282,60.096z    M63.719,60.096c0-3.474-1.309-6.64-3.444-9.059c5.052,1.773,9.605,4.845,13.207,9.014c-3.571,4.135-8.079,7.188-13.081,8.968   C62.463,66.616,63.719,63.503,63.719,60.096z M50,18.796L69.367,52.34c-5.626-3.911-12.339-6.056-19.366-6.056   c-7.031,0-13.744,2.148-19.371,6.062L50,18.796z M13.102,82.705l11.633-20.149c6.468,7.179,15.566,11.261,25.266,11.261   s18.8-4.078,25.267-11.257l11.632,20.146H13.102z"
       id="path1" /><path
       d="M50.001,52.379c-0.829,0-1.5,0.672-1.5,1.5s0.671,1.5,1.5,1.5c2.602,0,4.718,2.116,4.718,4.717c0,0.828,0.672,1.5,1.5,1.5   s1.5-0.672,1.5-1.5C57.719,55.841,54.257,52.379,50.001,52.379z"
       id="path2" /></g></svg>
