<?xml version="1.0" encoding="UTF-8" standalone="no"?>
<svg
   viewBox="-0.8 -1.6 17.6 21.6"
   fill="none"
   x="0px"
   y="0px"
   version="1.1"
   id="svg2"
   sodipodi:docname="fork.svg"
   inkscape:version="1.4 (e7c3feb100, 2024-10-09)"
   xmlns:inkscape="http://www.inkscape.org/namespaces/inkscape"
   xmlns:sodipodi="http://sodipodi.sourceforge.net/DTD/sodipodi-0.dtd"
   xmlns="http://www.w3.org/2000/svg"
   xmlns:svg="http://www.w3.org/2000/svg">
  <defs
     id="defs2" />
  <sodipodi:namedview
     id="namedview2"
     pagecolor="#ffffff"
     bordercolor="#000000"
     borderopacity="0.25"
     inkscape:showpageshadow="2"
     inkscape:pageopacity="0.0"
     inkscape:pagecheckerboard="0"
     inkscape:deskcolor="#d1d1d1"
     inkscape:zoom="37.037036"
     inkscape:cx="8.8020002"
     inkscape:cy="17.28"
     inkscape:window-width="1920"
     inkscape:window-height="1008"
     inkscape:window-x="1920"
     inkscape:window-y="0"
     inkscape:window-maximized="1"
     inkscape:current-layer="svg2" />
  <g
     id="g1">
    <path
       fill-rule="evenodd"
       clip-rule="evenodd"
       d="M14 5.82929C15.1652 5.41746 16 4.30622 16 3C16 1.34315 14.6569 0 13 0C11.3431 0 10 1.34315 10 3C10 4.30622 10.8348 5.41746 12 5.82929V7H4V5.82929C5.16519 5.41746 6 4.30622 6 3C6 1.34315 4.65685 0 3 0C1.34315 0 0 1.34315 0 3C0 4.30622 0.834807 5.41746 2 5.82929V10.1707C0.834807 10.5825 0 11.6938 0 13C0 14.6569 1.34315 16 3 16C4.65685 16 6 14.6569 6 13C6 11.6938 5.16519 10.5825 4 10.1707V9H12C13.1046 9 14 8.10457 14 7V5.82929ZM14 3C14 3.55228 13.5523 4 13 4C12.4477 4 12 3.55228 12 3C12 2.44772 12.4477 2 13 2C13.5523 2 14 2.44772 14 3ZM3 14C3.55229 14 4 13.5523 4 13C4 12.4477 3.55229 12 3 12C2.44771 12 2 12.4477 2 13C2 13.5523 2.44771 14 3 14ZM4 3C4 3.55228 3.55229 4 3 4C2.44771 4 2 3.55228 2 3C2 2.44772 2.44771 2 3 2C3.55229 2 4 2.44772 4 3Z"
       fill="black"
       id="path1" />
  </g>
</svg>
