<?xml version="1.0" encoding="UTF-8" standalone="no"?>
<svg
   viewBox="0 0 48 60"
   version="1.1"
   xml:space="preserve"
   style=""
   x="0px"
   y="0px"
   fill-rule="evenodd"
   clip-rule="evenodd"
   stroke-linejoin="round"
   stroke-miterlimit="2"
   id="svg3"
   sodipodi:docname="home.svg"
   inkscape:version="1.4 (e7c3feb100, 2024-10-09)"
   xmlns:inkscape="http://www.inkscape.org/namespaces/inkscape"
   xmlns:sodipodi="http://sodipodi.sourceforge.net/DTD/sodipodi-0.dtd"
   xmlns="http://www.w3.org/2000/svg"
   xmlns:svg="http://www.w3.org/2000/svg"><defs
     id="defs3" /><sodipodi:namedview
     id="namedview3"
     pagecolor="#ffffff"
     bordercolor="#000000"
     borderopacity="0.25"
     inkscape:showpageshadow="2"
     inkscape:pageopacity="0.0"
     inkscape:pagecheckerboard="0"
     inkscape:deskcolor="#d1d1d1"
     inkscape:zoom="4.7140452"
     inkscape:cx="34.89572"
     inkscape:cy="28.001429"
     inkscape:window-width="1920"
     inkscape:window-height="1052"
     inkscape:window-x="0"
     inkscape:window-y="0"
     inkscape:window-maximized="1"
     inkscape:current-layer="svg3" /><g
     transform="matrix(1,0,0,1,-336,-48)"
     id="g2"><g
       id="g1"><path
         d="M354,93L344,93C343.448,93 343,92.552 343,92C343,92 343,73 343,73L340,73C339.596,73 339.231,72.756 339.076,72.383C338.921,72.009 339.007,71.579 339.293,71.293C339.293,71.293 359.293,51.293 359.293,51.293C359.683,50.902 360.317,50.902 360.707,51.293C360.707,51.293 380.707,71.293 380.707,71.293C380.993,71.579 381.079,72.009 380.924,72.383C380.769,72.756 380.404,73 380,73L377,73L377,92C377,92.552 376.552,93 376,93L366,93C365.735,93 365.48,92.895 365.293,92.707C365.105,92.52 365,92.265 365,92C365,92 365,83.046 365,80C365,79.448 364.552,79 364,79C362.084,79 357.916,79 356,79C355.448,79 355,79.448 355,80C355,83.046 355,92 355,92C355,92.265 354.895,92.52 354.707,92.707C354.52,92.895 354.265,93 354,93Z"
         id="path1" /></g></g></svg>
