<?xml version="1.0" encoding="UTF-8" standalone="no"?>
<svg
   version="1.1"
   viewBox="-5 -10 79.652496 100"
   id="svg6"
   sodipodi:docname="loudspeaker.svg"
   width="79.652496"
   height="100"
   inkscape:version="1.4 (e7c3feb100, 2024-10-09)"
   xmlns:inkscape="http://www.inkscape.org/namespaces/inkscape"
   xmlns:sodipodi="http://sodipodi.sourceforge.net/DTD/sodipodi-0.dtd"
   xmlns="http://www.w3.org/2000/svg"
   xmlns:svg="http://www.w3.org/2000/svg">
  <defs
     id="defs6" />
  <sodipodi:namedview
     id="namedview6"
     pagecolor="#ffffff"
     bordercolor="#000000"
     borderopacity="0.25"
     inkscape:showpageshadow="2"
     inkscape:pageopacity="0.0"
     inkscape:pagecheckerboard="0"
     inkscape:deskcolor="#d1d1d1"
     inkscape:zoom="5.9259259"
     inkscape:cx="39.825"
     inkscape:cy="57.54375"
     inkscape:window-width="1920"
     inkscape:window-height="1008"
     inkscape:window-x="1920"
     inkscape:window-y="0"
     inkscape:window-maximized="1"
     inkscape:current-layer="svg6" />
  <path
     d="M 70.4063,-10 H -0.7617 C -3.1015,-10 -5,-8.0977 -5,-5.7578 v 77.059 c 0,2.3398 1.8984,4.2383 4.2383,4.2383 h 71.172 c 2.3398,0 4.2422,-1.8984 4.2422,-4.2383 V -5.7578 C 74.6525,-8.0976 72.7502,-10 70.4103,-10 Z m -65.344,6.1914 c 2.1992,0 3.9883,1.7891 3.9883,3.9844 0,2.1992 -1.793,3.9844 -3.9883,3.9844 -2.1992,0 -3.9844,-1.7891 -3.9844,-3.9844 0,-2.1992 1.7891,-3.9844 3.9844,-3.9844 z m 0,73.164 c -2.1992,0 -3.9844,-1.7891 -3.9844,-3.9844 0,-2.1992 1.7891,-3.9883 3.9844,-3.9883 2.1992,0 3.9883,1.793 3.9883,3.9883 0,2.1992 -1.793,3.9844 -3.9883,3.9844 z m 29.758,-4.3594 c -17.766,0 -32.223,-14.453 -32.223,-32.223 0,-17.766 14.457,-32.219 32.223,-32.219 17.766,0 32.223,14.453 32.223,32.219 0,17.77 -14.457,32.223 -32.223,32.223 z m 29.762,4.3594 c -2.1992,0 -3.9844,-1.7891 -3.9844,-3.9844 0,-2.1992 1.7891,-3.9883 3.9844,-3.9883 2.1992,0 3.9844,1.793 3.9844,3.9883 0,2.1992 -1.7891,3.9844 -3.9844,3.9844 z m 0,-65.191 c -2.1992,0 -3.9844,-1.7891 -3.9844,-3.9844 0,-2.1992 1.7891,-3.9844 3.9844,-3.9844 2.1992,0 3.9844,1.7891 3.9844,3.9844 0,2.1992 -1.7891,3.9844 -3.9844,3.9844 z"
     id="path1" />
  <path
     d="m 34.8203,2.566 c -16.656,0 -30.211,13.551 -30.211,30.207 0,16.66 13.555,30.211 30.211,30.211 16.66,0 30.211,-13.551 30.211,-30.211 0,-16.656 -13.551,-30.207 -30.211,-30.207 z m 0,55.727 c -14.07,0 -25.52,-11.445 -25.52,-25.52 0,-14.07 11.449,-25.52 25.52,-25.52 14.07,0 25.52,11.449 25.52,25.52 0,14.074 -11.449,25.52 -25.52,25.52 z"
     id="path2" />
  <path
     d="m 34.8203,9.266 c -12.961,0 -23.508,10.547 -23.508,23.508 0,12.965 10.547,23.508 23.508,23.508 12.965,0 23.508,-10.543 23.508,-23.508 0,-12.961 -10.543,-23.508 -23.508,-23.508 z m 0,30.73 c -3.9805,0 -7.2227,-3.2422 -7.2227,-7.2266 0,-3.9805 3.2422,-7.2227 7.2227,-7.2227 3.9844,0 7.2266,3.2422 7.2266,7.2227 0,3.9844 -3.2422,7.2266 -7.2266,7.2266 z"
     id="path3" />
  <path
     d="m 7.5583,90 h 9.1758 l 8.6992,-12.445 h -14.602 z"
     id="path4" />
  <path
     d="M 43.6443,77.555 52.3435,90 h 9.1758 L 58.2459,77.555 Z"
     id="path5" />
</svg>
