<?xml version="1.0" encoding="UTF-8" standalone="no"?>
<svg
   version="1.1"
   x="0px"
   y="0px"
   viewBox="-5.0 -10.0 110.0 135.0"
   style="enable-background:new 0 0 100 100;"
   xml:space="preserve"
   id="svg2"
   sodipodi:docname="message.svg"
   inkscape:version="1.4 (e7c3feb100, 2024-10-09)"
   xmlns:inkscape="http://www.inkscape.org/namespaces/inkscape"
   xmlns:sodipodi="http://sodipodi.sourceforge.net/DTD/sodipodi-0.dtd"
   xmlns="http://www.w3.org/2000/svg"
   xmlns:svg="http://www.w3.org/2000/svg"><defs
     id="defs2" /><sodipodi:namedview
     id="namedview2"
     pagecolor="#ffffff"
     bordercolor="#000000"
     borderopacity="0.25"
     inkscape:showpageshadow="2"
     inkscape:pageopacity="0.0"
     inkscape:pagecheckerboard="0"
     inkscape:deskcolor="#d1d1d1"
     inkscape:zoom="6.2518519"
     inkscape:cx="54.94372"
     inkscape:cy="67.5"
     inkscape:window-width="1920"
     inkscape:window-height="1052"
     inkscape:window-x="0"
     inkscape:window-y="0"
     inkscape:window-maximized="1"
     inkscape:current-layer="svg2" /><style
     type="text/css"
     id="style1">
	.st0{fill-rule:evenodd;clip-rule:evenodd;}
</style><path
     class="st0"
     d="M89.841,13.391H10.159c-2.548,0-5.155,1.625-5.155,4.053v48.517c0,1.055,0.535,2.033,1.396,2.76l-0.003,0.004  c0.946,0.795,2.276,1.289,3.762,1.289h9.682v16.596l20.373-16.596h49.627c2.548,0,5.155-1.627,5.155-4.052V17.444  C94.996,15.017,92.389,13.391,89.841,13.391L89.841,13.391z M21.137,25.164h57.727v3.75H21.137V25.164L21.137,25.164z   M21.137,39.827h57.727v3.75H21.137V39.827L21.137,39.827z M21.137,54.491H50v3.75H21.137V54.491z"
     id="path1" /></svg>
