<?xml version="1.0" encoding="UTF-8" standalone="no"?>
<svg
   version="1.1"
   x="0px"
   y="0px"
   viewBox="0 0 100 125"
   style="enable-background:new 0 0 100 100;"
   xml:space="preserve"
   id="svg7"
   sodipodi:docname="notification.svg"
   inkscape:version="1.4 (e7c3feb100, 2024-10-09)"
   xmlns:inkscape="http://www.inkscape.org/namespaces/inkscape"
   xmlns:sodipodi="http://sodipodi.sourceforge.net/DTD/sodipodi-0.dtd"
   xmlns="http://www.w3.org/2000/svg"
   xmlns:svg="http://www.w3.org/2000/svg"><defs
     id="defs7" /><sodipodi:namedview
     id="namedview7"
     pagecolor="#ffffff"
     bordercolor="#000000"
     borderopacity="0.25"
     inkscape:showpageshadow="2"
     inkscape:pageopacity="0.0"
     inkscape:pagecheckerboard="0"
     inkscape:deskcolor="#d1d1d1"
     inkscape:zoom="6.752"
     inkscape:cx="49.98519"
     inkscape:cy="62.944313"
     inkscape:window-width="1920"
     inkscape:window-height="1052"
     inkscape:window-x="0"
     inkscape:window-y="0"
     inkscape:window-maximized="1"
     inkscape:current-layer="svg7" /><g
     id="g6"><path
       d="M74.7,68.1l-4.2-14.2c-0.2-0.7-0.3-1.3-0.3-2V41.5c0-10.4-7.6-19.3-17.7-20.5v-2.1c0-1.4-1.1-2.5-2.5-2.5s-2.5,1.1-2.5,2.5   V21c-10,1.2-17.7,9.7-17.7,20v10.8c0,0.7-0.1,1.4-0.3,2l-4.2,14.2c-0.4,1.4,0.6,2.8,2.1,2.8h45.1C74,70.9,75.1,69.5,74.7,68.1z"
       id="path1" /><path
       d="M59.5,74h-19c0,5.2,4.3,9.5,9.5,9.5S59.5,79.2,59.5,74z"
       id="path2" /><path
       d="M77.1,48.2c-0.1,0.6-0.3,1.1-0.4,1.6c-0.4,1.3,0.4,2.7,1.7,3.1c0.2,0.1,0.5,0.1,0.7,0.1c1.1,0,2.1-0.7,2.4-1.8   c0.2-0.6,0.4-1.3,0.5-1.9c0,0,0,0,0,0c0.6-2.4,0.9-4.9,0.9-7.4c0-5.1-1.1-9.9-3.4-14.5c-0.6-1.2-2.1-1.8-3.3-1.1   c-1.2,0.6-1.7,2.1-1.1,3.3c1.9,3.8,2.8,8,2.8,12.3C77.8,44,77.6,46.1,77.1,48.2C77.1,48.2,77.1,48.2,77.1,48.2z"
       id="path3" /><path
       d="M86.9,57.4c0.3,0.1,0.6,0.1,0.8,0.1c1,0,2-0.6,2.4-1.7c1.6-4.5,2.4-9.2,2.4-14c0-7-1.7-13.9-5-20c-0.7-1.2-2.2-1.7-3.4-1   s-1.7,2.2-1,3.4c2.9,5.4,4.4,11.5,4.4,17.6c0,4.2-0.7,8.4-2.1,12.4C84.9,55.6,85.6,57,86.9,57.4z"
       id="path4" /><path
       d="M13.1,57.4c1.3-0.5,2-1.9,1.5-3.2c-1.4-4-2.1-8.1-2.1-12.4c0-6.7,1.8-13.3,5.2-19.1c0.7-1.2,0.3-2.7-0.9-3.4   c-1.2-0.7-2.7-0.3-3.4,0.9c-3.9,6.5-5.9,14-5.9,21.6c0,4.8,0.8,9.5,2.4,14c0.4,1,1.3,1.7,2.4,1.7C12.5,57.6,12.8,57.5,13.1,57.4z"
       id="path5" /><path
       d="M23.9,26.3c-1.2-0.6-2.7-0.1-3.3,1.1c-2.2,4.5-3.4,9.4-3.4,14.5c0,2.5,0.3,5,0.9,7.4c0,0,0,0,0,0c0.2,0.7,0.3,1.3,0.5,1.9   c0.3,1.1,1.3,1.8,2.4,1.8c0.2,0,0.5,0,0.7-0.1c1.3-0.4,2.1-1.8,1.7-3.1c-0.2-0.5-0.3-1.1-0.4-1.6c0,0,0,0,0,0   c-0.5-2.1-0.7-4.2-0.7-6.3c0-4.3,1-8.4,2.8-12.3C25.6,28.4,25.1,26.9,23.9,26.3z"
       id="path6" /></g></svg>
