<?xml version="1.0" encoding="UTF-8" standalone="no"?>
<svg
   version="1.1"
   viewBox="-5.0 -10.0 110.0 135.0"
   id="svg4"
   sodipodi:docname="noun-community-6747779.svg"
   inkscape:version="1.4 (e7c3feb100, 2024-10-09)"
   xmlns:inkscape="http://www.inkscape.org/namespaces/inkscape"
   xmlns:sodipodi="http://sodipodi.sourceforge.net/DTD/sodipodi-0.dtd"
   xmlns="http://www.w3.org/2000/svg"
   xmlns:svg="http://www.w3.org/2000/svg">
  <defs
     id="defs4" />
  <sodipodi:namedview
     id="namedview4"
     pagecolor="#ffffff"
     bordercolor="#000000"
     borderopacity="0.25"
     inkscape:showpageshadow="2"
     inkscape:pageopacity="0.0"
     inkscape:pagecheckerboard="0"
     inkscape:deskcolor="#d1d1d1"
     inkscape:zoom="6.2518519"
     inkscape:cx="54.94372"
     inkscape:cy="67.5"
     inkscape:window-width="1920"
     inkscape:window-height="1052"
     inkscape:window-x="0"
     inkscape:window-y="0"
     inkscape:window-maximized="1"
     inkscape:current-layer="svg4" />
  <g
     id="g3">
    <path
       d="m50.004 25.102c-6.7656 0-12.273 5.6211-12.273 12.414s5.5078 12.41 12.273 12.41 12.273-5.6133 12.273-12.41c0-6.793-5.5078-12.414-12.273-12.414zm-6.3906 30.449c-4.25 0-7.8633 2.2227-10.191 5.2617s-3.5781 6.8906-3.5781 10.816v2.1719c0 4.0508 3.3125 7.4531 7.3789 7.4531h25.535c4.0664 0 7.3867-3.4023 7.3867-7.4531v-2.1719c0-3.9258-1.25-7.7773-3.5781-10.816s-5.9492-5.2617-10.199-5.2617z"
       id="path1" />
    <path
       d="m72.172 23.441c-4.1133 0-7.4531 3.4492-7.4531 7.543s3.3398 7.543 7.4531 7.543 7.4531-3.4492 7.4531-7.543-3.3398-7.543-7.4531-7.543zm-3.1602 23.348c-1.4219-0.011718-2.6719 0.93359-3.0469 2.3047-0.37109 1.3711 0.22656 2.8203 1.457 3.5312 3.5586 2.082 6.2031 6.8633 7.2617 10.82h0.003906c0.36328 1.3711 1.6016 2.3242 3.0195 2.3242h3.9688c3.2578 0 5.8164-2.7773 5.8164-5.9492v-1.4297c0-2.7852-0.83594-5.4844-2.4727-7.6836s-4.2891-3.918-7.4023-3.918z"
       id="path2" />
    <path
       d="m27.836 23.121c-4.2891 0-7.7773 3.5938-7.7773 7.8672 0 4.2734 3.4883 7.8672 7.7773 7.8672 4.2891 0 7.7773-3.5938 7.7773-7.8672 0-4.2734-3.4883-7.8672-7.7773-7.8672zm-5.4453 23.668c-3.1172 0-5.7695 1.7188-7.4023 3.918-1.6367 2.1992-2.4961 4.9023-2.4961 7.6836v1.4297c0 3.1758 2.582 5.9492 5.8398 5.9492h3.1562c1.4219 0.003907 2.6641-0.94922 3.0273-2.3242 0.97266-3.6289 4.3594-8.6602 8.0508-10.82 1.2305-0.70703 1.8281-2.1523 1.4609-3.5234-0.36719-1.3672-1.6133-2.3164-3.0312-2.3125z"
       id="path3" />
  </g>
</svg>
