<?xml version="1.0" encoding="UTF-8" standalone="no"?>
<svg
   version="1.1"
   x="0px"
   y="0px"
   viewBox="0 0 60 75"
   enable-background="new 0 0 60 60"
   xml:space="preserve"
   id="svg5"
   sodipodi:docname="privacy.svg"
   inkscape:version="1.4 (e7c3feb100, 2024-10-09)"
   xmlns:inkscape="http://www.inkscape.org/namespaces/inkscape"
   xmlns:sodipodi="http://sodipodi.sourceforge.net/DTD/sodipodi-0.dtd"
   xmlns="http://www.w3.org/2000/svg"
   xmlns:svg="http://www.w3.org/2000/svg"><defs
     id="defs5" /><sodipodi:namedview
     id="namedview5"
     pagecolor="#ffffff"
     bordercolor="#000000"
     borderopacity="0.25"
     inkscape:showpageshadow="2"
     inkscape:pageopacity="0.0"
     inkscape:pagecheckerboard="0"
     inkscape:deskcolor="#d1d1d1"
     inkscape:zoom="3.9786542"
     inkscape:cx="12.315722"
     inkscape:cy="76.156406"
     inkscape:window-width="1920"
     inkscape:window-height="1052"
     inkscape:window-x="0"
     inkscape:window-y="0"
     inkscape:window-maximized="1"
     inkscape:current-layer="svg5" /><g
     id="g4"><path
       d="M53.71,15.29c-1.83-1.82-3.28-3.19-4.67-4.52c-1.39-1.31-2.83-2.67-4.64-4.48C44.22,6.11,43.96,6,43.7,6H16.3   c-0.26,0-0.52,0.11-0.7,0.29c-1.81,1.81-3.25,3.17-4.64,4.48c-1.39,1.33-2.84,2.7-4.67,4.52C6.11,15.48,6,15.73,6,16   c0,20.96,7.53,33.02,23.71,37.96C29.8,53.99,29.9,54,30,54s0.2-0.01,0.29-0.04C46.47,49.02,54,36.96,54,16   C54,15.73,53.89,15.48,53.71,15.29z M30.32,49.75c-0.1,0.03-0.21,0.05-0.32,0.05s-0.22-0.02-0.32-0.05   c-13.26-4.49-19.32-14.38-19.66-32.08c-0.01-0.27,0.1-0.54,0.3-0.73c1.23-1.21,2.29-2.22,3.39-3.26c1.1-1.04,2.22-2.1,3.54-3.39   c0.19-0.19,0.44-0.29,0.7-0.29h24.1c0.26,0,0.51,0.1,0.7,0.29c1.32,1.29,2.44,2.35,3.54,3.39c1.1,1.04,2.16,2.05,3.39,3.26   c0.2,0.19,0.31,0.46,0.3,0.73C49.64,35.37,43.58,45.26,30.32,49.75z"
       id="path1" /><path
       d="M44.91,15.13c-1.02-0.96-2.07-1.96-3.27-3.13H18.36c-1.2,1.17-2.25,2.17-3.27,3.13c-1,0.95-1.97,1.86-3.07,2.93   C12.43,34.59,17.83,43.5,30,47.74c12.17-4.24,17.57-13.15,17.98-29.68C46.88,16.99,45.91,16.08,44.91,15.13z M39,37   c0,1.1-0.9,2-2,2H23c-1.1,0-2-0.9-2-2V27c0-1.1,0.9-2,2-2h1v-3c0-3.31,2.69-6,6-6s6,2.69,6,6v3h1c1.1,0,2,0.9,2,2V37z"
       id="path2" /><path
       d="M34,22v3h-8v-3c0-2.21,1.79-4,4-4S34,19.79,34,22z"
       id="path3" /><path
       d="M31,31v2c0,0.55-0.45,1-1,1s-1-0.45-1-1v-2c0-0.55,0.45-1,1-1S31,30.45,31,31z"
       id="path4" /></g></svg>
