<?xml version="1.0" encoding="UTF-8" standalone="no"?>
<svg
   version="1.1"
   viewBox="-5.0 -10.0 110.0 135.0"
   id="svg2"
   sodipodi:docname="search.svg"
   inkscape:version="1.4 (e7c3feb100, 2024-10-09)"
   xmlns:inkscape="http://www.inkscape.org/namespaces/inkscape"
   xmlns:sodipodi="http://sodipodi.sourceforge.net/DTD/sodipodi-0.dtd"
   xmlns="http://www.w3.org/2000/svg"
   xmlns:svg="http://www.w3.org/2000/svg">
  <defs
     id="defs2" />
  <sodipodi:namedview
     id="namedview2"
     pagecolor="#ffffff"
     bordercolor="#000000"
     borderopacity="0.25"
     inkscape:showpageshadow="2"
     inkscape:pageopacity="0.0"
     inkscape:pagecheckerboard="0"
     inkscape:deskcolor="#d1d1d1"
     inkscape:zoom="5.9259259"
     inkscape:cx="54.928125"
     inkscape:cy="67.5"
     inkscape:window-width="1920"
     inkscape:window-height="1008"
     inkscape:window-x="1920"
     inkscape:window-y="0"
     inkscape:window-maximized="1"
     inkscape:current-layer="svg2" />
  <path
     d="m39.703 5.4453c-19.141 0-34.652 15.516-34.652 34.652 0 19.141 15.512 34.656 34.652 34.656 7.4219 0 14.301-2.3359 19.941-6.3125l24.371 24.375c2.3203 2.3164 6.082 2.3164 8.4023 0 2.3203-2.3203 2.3203-6.082 0-8.4023l-24.371-24.371c3.9727-5.6406 6.3086-12.52 6.3086-19.945 0-19.137-15.516-34.652-34.652-34.652zm-22.773 34.652c0-12.574 10.195-22.77 22.773-22.77s22.773 10.195 22.773 22.77c0 12.578-10.195 22.773-22.773 22.773s-22.773-10.195-22.773-22.773z"
     fill-rule="evenodd"
     id="path1" />
</svg>
