<?xml version="1.0" encoding="UTF-8" standalone="no"?>
<svg
   version="1.1"
   x="0px"
   y="0px"
   viewBox="0 0 100 125"
   style="enable-background:new 0 0 100 100;"
   xml:space="preserve"
   id="svg3"
   sodipodi:docname="watch.svg"
   inkscape:version="1.4 (e7c3feb100, 2024-10-09)"
   xmlns:inkscape="http://www.inkscape.org/namespaces/inkscape"
   xmlns:sodipodi="http://sodipodi.sourceforge.net/DTD/sodipodi-0.dtd"
   xmlns="http://www.w3.org/2000/svg"
   xmlns:svg="http://www.w3.org/2000/svg"><defs
     id="defs3" /><sodipodi:namedview
     id="namedview3"
     pagecolor="#ffffff"
     bordercolor="#000000"
     borderopacity="0.25"
     inkscape:showpageshadow="2"
     inkscape:pageopacity="0.0"
     inkscape:pagecheckerboard="0"
     inkscape:deskcolor="#d1d1d1"
     inkscape:zoom="6.4"
     inkscape:cx="49.921875"
     inkscape:cy="62.5"
     inkscape:window-width="1920"
     inkscape:window-height="1008"
     inkscape:window-x="1920"
     inkscape:window-y="0"
     inkscape:window-maximized="1"
     inkscape:current-layer="svg3" /><g
     id="g2"><g
       id="g1"><path
         d="M28,88.3c-0.9,0-1.8-0.3-2.6-0.9c-1.6-1.2-2.2-3.1-1.6-5l6.9-21.2c0.3-0.9,0-2-0.8-2.5l-18-13.1c-1.6-1.2-2.2-3.1-1.6-5    c0.6-1.9,2.3-3.1,4.2-3.1h22.3c1,0,1.9-0.6,2.2-1.6l6.9-21.2c0.6-1.9,2.3-3.1,4.2-3.1s3.6,1.2,4.2,3.1L61.1,36    c0.3,0.9,1.2,1.6,2.2,1.6h22.3c2,0,3.6,1.2,4.2,3.1c0.6,1.9,0,3.8-1.6,5l-18,13.1c-0.8,0.6-1.1,1.6-0.8,2.5l6.9,21.2    c0.6,1.9,0,3.8-1.6,5c-1.6,1.2-3.6,1.2-5.2,0l-18-13.1c-0.8-0.6-1.9-0.6-2.7,0l-18,13.1C29.8,88,28.9,88.3,28,88.3z"
         id="path1" /></g></g></svg>
