<?xml version="1.0" encoding="UTF-8" standalone="no"?>
<svg
   version="1.1"
   viewBox="-5.0 -10.0 110.0 135.0"
   id="svg2"
   sodipodi:docname="support.svg"
   inkscape:version="1.4 (e7c3feb100, 2024-10-09)"
   xmlns:inkscape="http://www.inkscape.org/namespaces/inkscape"
   xmlns:sodipodi="http://sodipodi.sourceforge.net/DTD/sodipodi-0.dtd"
   xmlns="http://www.w3.org/2000/svg"
   xmlns:svg="http://www.w3.org/2000/svg">
  <defs
     id="defs2" />
  <sodipodi:namedview
     id="namedview2"
     pagecolor="#ffffff"
     bordercolor="#000000"
     borderopacity="0.25"
     inkscape:showpageshadow="2"
     inkscape:pageopacity="0.0"
     inkscape:pagecheckerboard="0"
     inkscape:deskcolor="#d1d1d1"
     inkscape:zoom="6.2518519"
     inkscape:cx="54.94372"
     inkscape:cy="67.5"
     inkscape:window-width="1920"
     inkscape:window-height="1052"
     inkscape:window-x="0"
     inkscape:window-y="0"
     inkscape:window-maximized="1"
     inkscape:current-layer="svg2" />
  <path
     d="m61.105 13.484c3.4883 0.84766 6.7695 2.2266 9.7539 4.043l5.3047-4.0508c2.0781-1.5859 4.9688-1.3945 6.8164 0.45313l3.0938 3.0938c1.8477 1.8477 2.0391 4.7383 0.45312 6.8164l-4.0508 5.3008c1.8164 2.9844 3.1953 6.2656 4.0469 9.7578l6.6094 0.88281c2.5898 0.34766 4.4961 2.5234 4.4961 5.1406v4.375c0 2.6133-1.9062 4.793-4.4961 5.1406l-6.6094 0.88281c-0.84766 3.4883-2.2266 6.7695-4.043 9.7539l4.0508 5.3047c1.5859 2.0781 1.3945 4.9648-0.45312 6.8164l-3.0938 3.0938c-1.8477 1.8477-4.7383 2.0391-6.8164 0.45313l-5.3008-4.0508c-1.2305 0.75-2.5117 1.4258-3.8398 2.0195l-7.9023-7.9023c-2.3555-2.3555-6.1914-2.3555-8.5469 0l-5 5c-0.66406 0.66406-1.7617 0.66406-2.4219 0l-18.957-18.965c-0.66016-0.66406-0.66016-1.7578 0-2.4219l5-5c2.3555-2.3555 2.3555-6.1875 0-8.5469l-7.9023-7.9023c0.59375-1.3242 1.2695-2.6055 2.0195-3.8359l-4.0508-5.3008c-1.5859-2.0781-1.3945-4.9648 0.45312-6.8164l3.0938-3.0938c1.8477-1.8477 4.7383-2.0391 6.8164-0.45312l5.3008 4.0508c2.9844-1.8164 6.2656-3.1953 9.7539-4.043l0.88281-6.6094c0.34766-2.5898 2.5234-4.4961 5.1406-4.4961h4.375c2.6133 0 4.793 1.9062 5.1406 4.4961zm-13.719 64.121c-1.6602 1.6602-4.3711 1.6602-6.0312 0l-18.961-18.957c-1.6602-1.6602-1.6602-4.3711 0-6.0312l5-5c1.3594-1.3594 1.3594-3.5742 0-4.9336l-8.7148-8.7148c-1.3594-1.3594-3.5742-1.3594-4.9336 0l-5.3867 5.3867c-7.9844 7.9844-7.9844 21.047 0 29.027l23.254 23.254c7.9844 7.9844 21.047 7.9844 29.027 0l5.3867-5.3867c1.3594-1.3594 1.3594-3.5742 0-4.9336l-8.7109-8.7109c-1.3594-1.3594-3.5742-1.3594-4.9336 0zm5.5078-50.516c-11.055 0-20.016 8.9609-20.016 20.016 0 11.055 8.9609 20.016 20.016 20.016 11.055 0 20.016-8.9609 20.016-20.016 0-11.055-8.9609-20.016-20.016-20.016zm-13.211 20.43 8.5273 8.5273c0.49609 0.5 1.3086 0.5 1.8047 0l16.086-16.086c0.49609-0.5 0.49609-1.3086 0-1.8047-0.5-0.49609-1.3086-0.49609-1.8047 0l-15.18 15.188-7.6289-7.6289c-0.5-0.5-1.3086-0.5-1.8047 0s-0.49609 1.3086 0 1.8047z"
     fill-rule="evenodd"
     id="path1" />
</svg>
